<svg width="30" height="30" viewBox="0 0 30 30" fill="none" xmlns="http://www.w3.org/2000/svg">
<path fill-rule="evenodd" clip-rule="evenodd" d="M23.5813 6.40477C24.1276 6.59602 24.4926 7.11102 24.4926 7.68977V16.156C24.4926 18.5223 23.6326 20.781 22.1138 22.531C21.3501 23.4123 20.3838 24.0985 19.3576 24.6535L14.9101 27.056L10.4551 24.6523C9.42756 24.0973 8.46006 23.4123 7.69506 22.5298C6.17506 20.7798 5.31256 18.5198 5.31256 16.151V7.68977C5.31256 7.11102 5.67756 6.59602 6.22381 6.40477L14.4513 3.51352C14.7438 3.41102 15.0626 3.41102 15.3538 3.51352L23.5813 6.40477Z" stroke="#8EFF66" stroke-width="1.5" stroke-linecap="round" stroke-linejoin="round"/>
<path opacity="0.4" d="M11.6534 14.8971L14.0184 17.2634L18.8909 12.3909" stroke="#8EFF66" stroke-width="1.5" stroke-linecap="round" stroke-linejoin="round"/>
</svg>
